<svg width="275" height="144" viewBox="0 0 275 144" fill="none" xmlns="http://www.w3.org/2000/svg">
<rect x="137.878" width="66.2958" height="66.2958" transform="rotate(45 137.878 0)" fill="#E0F0EF"/>
<path fill-rule="evenodd" clip-rule="evenodd" d="M127.094 30.2014H121.201V47.1437C121.201 56.0938 128.457 63.3493 137.407 63.3493H151.403C153.03 63.3493 154.349 62.0301 154.349 60.4028V30.2014H148.456V36.0944V36.831V57.4564H137.407C131.712 57.4564 127.094 52.8392 127.094 47.1437L127.094 36.831V30.2014Z" fill="#49969C"/>
<path d="M25.9552 134.484C23.4032 134.484 21.1445 133.941 19.1792 132.856C17.2432 131.771 15.7179 130.275 14.6032 128.368C13.5179 126.432 12.9752 124.232 12.9752 121.768V102.936H19.9272V122.164C19.9272 123.396 20.1912 124.467 20.7192 125.376C21.2472 126.285 21.9659 126.989 22.8752 127.488C23.8139 127.957 24.8405 128.192 25.9552 128.192C27.1285 128.192 28.1552 127.957 29.0352 127.488C29.9152 126.989 30.6045 126.3 31.1032 125.42C31.6312 124.511 31.8952 123.44 31.8952 122.208V102.936H38.8472V121.812C38.8472 124.276 38.3045 126.461 37.2192 128.368C36.1339 130.275 34.6232 131.771 32.6872 132.856C30.7512 133.941 28.5072 134.484 25.9552 134.484ZM62.2617 134V121.812C62.2617 120.697 61.9097 119.803 61.2057 119.128C60.5311 118.424 59.6657 118.072 58.6097 118.072C57.8764 118.072 57.2311 118.233 56.6737 118.556C56.1164 118.849 55.6764 119.289 55.3537 119.876C55.0311 120.433 54.8697 121.079 54.8697 121.812L52.2737 120.536C52.2737 118.864 52.6404 117.397 53.3737 116.136C54.1071 114.875 55.1191 113.907 56.4097 113.232C57.7297 112.528 59.2111 112.176 60.8537 112.176C62.4377 112.176 63.8311 112.557 65.0337 113.32C66.2657 114.053 67.2337 115.036 67.9377 116.268C68.6417 117.5 68.9937 118.849 68.9937 120.316V134H62.2617ZM48.1377 134V112.616H54.8697V134H48.1377ZM77.7174 134V112.616H84.4494V134H77.7174ZM91.4014 134V121.504C91.4014 120.419 91.0641 119.583 90.3894 118.996C89.7441 118.38 88.9374 118.072 87.9694 118.072C87.2947 118.072 86.6934 118.219 86.1654 118.512C85.6374 118.776 85.2121 119.157 84.8894 119.656C84.5961 120.155 84.4494 120.771 84.4494 121.504L81.8534 120.36C81.8534 118.659 82.2201 117.207 82.9534 116.004C83.6867 114.772 84.6841 113.833 85.9454 113.188C87.2067 112.513 88.6294 112.176 90.2134 112.176C91.7094 112.176 93.0441 112.513 94.2174 113.188C95.4201 113.863 96.3734 114.801 97.0774 116.004C97.7814 117.207 98.1334 118.644 98.1334 120.316V134H91.4014ZM105.085 134V121.504C105.085 120.419 104.748 119.583 104.073 118.996C103.428 118.38 102.621 118.072 101.653 118.072C100.979 118.072 100.377 118.219 99.8494 118.512C99.3214 118.776 98.8961 119.157 98.5734 119.656C98.2801 120.155 98.1334 120.771 98.1334 121.504L94.2614 120.976C94.3201 119.157 94.7454 117.603 95.5374 116.312C96.3587 114.992 97.4294 113.98 98.7494 113.276C100.099 112.543 101.609 112.176 103.281 112.176C104.924 112.176 106.376 112.528 107.637 113.232C108.928 113.907 109.94 114.889 110.673 116.18C111.436 117.441 111.817 118.967 111.817 120.756V134H105.085ZM129.463 134.44C127.498 134.44 125.738 133.956 124.183 132.988C122.658 132.02 121.441 130.7 120.531 129.028C119.651 127.356 119.211 125.449 119.211 123.308C119.211 121.167 119.651 119.26 120.531 117.588C121.441 115.916 122.658 114.596 124.183 113.628C125.738 112.66 127.498 112.176 129.463 112.176C130.901 112.176 132.191 112.455 133.335 113.012C134.509 113.569 135.462 114.347 136.195 115.344C136.929 116.312 137.339 117.427 137.427 118.688V127.928C137.339 129.189 136.929 130.319 136.195 131.316C135.491 132.284 134.553 133.047 133.379 133.604C132.206 134.161 130.901 134.44 129.463 134.44ZM130.827 128.368C132.265 128.368 133.423 127.899 134.303 126.96C135.183 125.992 135.623 124.775 135.623 123.308C135.623 122.311 135.418 121.431 135.007 120.668C134.626 119.905 134.069 119.319 133.335 118.908C132.631 118.468 131.81 118.248 130.871 118.248C129.933 118.248 129.097 118.468 128.363 118.908C127.659 119.319 127.087 119.905 126.647 120.668C126.237 121.431 126.031 122.311 126.031 123.308C126.031 124.276 126.237 125.141 126.647 125.904C127.058 126.667 127.63 127.268 128.363 127.708C129.097 128.148 129.918 128.368 130.827 128.368ZM135.359 134V128.236L136.371 123.044L135.359 117.852V112.616H141.959V134H135.359ZM163.419 134.44C161.982 134.44 160.662 134.161 159.459 133.604C158.257 133.047 157.274 132.284 156.511 131.316C155.749 130.319 155.309 129.189 155.191 127.928V118.908C155.309 117.647 155.749 116.503 156.511 115.476C157.274 114.449 158.257 113.643 159.459 113.056C160.662 112.469 161.982 112.176 163.419 112.176C165.443 112.176 167.233 112.66 168.787 113.628C170.371 114.596 171.603 115.916 172.483 117.588C173.393 119.26 173.847 121.167 173.847 123.308C173.847 125.449 173.393 127.356 172.483 129.028C171.603 130.7 170.371 132.02 168.787 132.988C167.233 133.956 165.443 134.44 163.419 134.44ZM151.099 143.02V112.616H157.831V118.116L156.731 123.308L157.743 128.5V143.02H151.099ZM162.187 128.368C163.155 128.368 163.991 128.148 164.695 127.708C165.429 127.268 166.001 126.667 166.411 125.904C166.822 125.141 167.027 124.276 167.027 123.308C167.027 122.311 166.822 121.431 166.411 120.668C166.001 119.905 165.429 119.319 164.695 118.908C163.991 118.468 163.17 118.248 162.231 118.248C161.293 118.248 160.457 118.468 159.723 118.908C159.019 119.319 158.462 119.905 158.051 120.668C157.641 121.431 157.435 122.311 157.435 123.308C157.435 124.276 157.626 125.141 158.007 125.904C158.418 126.667 158.99 127.268 159.723 127.708C160.457 128.148 161.278 128.368 162.187 128.368ZM193.987 134.44C192.55 134.44 191.23 134.161 190.027 133.604C188.825 133.047 187.842 132.284 187.079 131.316C186.317 130.319 185.877 129.189 185.759 127.928V118.908C185.877 117.647 186.317 116.503 187.079 115.476C187.842 114.449 188.825 113.643 190.027 113.056C191.23 112.469 192.55 112.176 193.987 112.176C196.011 112.176 197.801 112.66 199.355 113.628C200.939 114.596 202.171 115.916 203.051 117.588C203.961 119.26 204.415 121.167 204.415 123.308C204.415 125.449 203.961 127.356 203.051 129.028C202.171 130.7 200.939 132.02 199.355 132.988C197.801 133.956 196.011 134.44 193.987 134.44ZM181.667 143.02V112.616H188.399V118.116L187.299 123.308L188.311 128.5V143.02H181.667ZM192.755 128.368C193.723 128.368 194.559 128.148 195.263 127.708C195.997 127.268 196.569 126.667 196.979 125.904C197.39 125.141 197.595 124.276 197.595 123.308C197.595 122.311 197.39 121.431 196.979 120.668C196.569 119.905 195.997 119.319 195.263 118.908C194.559 118.468 193.738 118.248 192.799 118.248C191.861 118.248 191.025 118.468 190.291 118.908C189.587 119.319 189.03 119.905 188.619 120.668C188.209 121.431 188.003 122.311 188.003 123.308C188.003 124.276 188.194 125.141 188.575 125.904C188.986 126.667 189.558 127.268 190.291 127.708C191.025 128.148 191.846 128.368 192.755 128.368ZM222.795 134.484C220.478 134.484 218.41 134.015 216.591 133.076C214.802 132.108 213.394 130.773 212.367 129.072C211.341 127.371 210.827 125.449 210.827 123.308C210.827 121.167 211.326 119.26 212.323 117.588C213.35 115.887 214.729 114.552 216.459 113.584C218.19 112.616 220.141 112.132 222.311 112.132C224.423 112.132 226.286 112.587 227.899 113.496C229.513 114.405 230.774 115.667 231.683 117.28C232.622 118.893 233.091 120.741 233.091 122.824C233.091 123.205 233.062 123.616 233.003 124.056C232.974 124.467 232.901 124.951 232.783 125.508L214.347 125.552V120.932L229.923 120.888L227.019 122.824C226.99 121.592 226.799 120.58 226.447 119.788C226.095 118.967 225.567 118.351 224.863 117.94C224.189 117.5 223.353 117.28 222.355 117.28C221.299 117.28 220.375 117.529 219.583 118.028C218.821 118.497 218.219 119.172 217.779 120.052C217.369 120.932 217.163 122.003 217.163 123.264C217.163 124.525 217.383 125.611 217.823 126.52C218.293 127.4 218.938 128.089 219.759 128.588C220.61 129.057 221.607 129.292 222.751 129.292C223.807 129.292 224.761 129.116 225.611 128.764C226.462 128.383 227.21 127.825 227.855 127.092L231.551 130.788C230.495 132.02 229.219 132.944 227.723 133.56C226.227 134.176 224.585 134.484 222.795 134.484ZM249.849 134.44C247.825 134.44 246.021 133.956 244.437 132.988C242.882 132.02 241.65 130.7 240.741 129.028C239.861 127.356 239.421 125.449 239.421 123.308C239.421 121.167 239.861 119.26 240.741 117.588C241.65 115.916 242.882 114.596 244.437 113.628C246.021 112.66 247.825 112.176 249.849 112.176C251.316 112.176 252.636 112.455 253.809 113.012C255.012 113.569 255.994 114.347 256.757 115.344C257.549 116.312 257.989 117.427 258.077 118.688V127.708C257.989 128.969 257.564 130.113 256.801 131.14C256.038 132.137 255.056 132.944 253.853 133.56C252.65 134.147 251.316 134.44 249.849 134.44ZM251.037 128.368C252.005 128.368 252.841 128.163 253.545 127.752C254.249 127.312 254.806 126.711 255.217 125.948C255.628 125.185 255.833 124.305 255.833 123.308C255.833 122.311 255.628 121.445 255.217 120.712C254.836 119.949 254.278 119.348 253.545 118.908C252.841 118.468 252.02 118.248 251.081 118.248C250.142 118.248 249.306 118.468 248.573 118.908C247.869 119.348 247.297 119.949 246.857 120.712C246.446 121.475 246.241 122.34 246.241 123.308C246.241 124.276 246.446 125.141 246.857 125.904C247.268 126.667 247.84 127.268 248.573 127.708C249.306 128.148 250.128 128.368 251.037 128.368ZM262.169 134H255.569V128.236L256.581 123.044L255.437 117.852V102.056H262.169V134Z" fill="#49969C"/>
</svg>
